<svg xmlns="http://www.w3.org/2000/svg" width="120" height="26" viewBox="0 0 120 26" fill="none">
    <g clip-path="url(#clip0_8532_25995)">
        <path d="M19.1062 24.6469C19.1062 24.6896 19.0738 24.7295 19.0295 24.738L13.5625 25.9174C13.471 25.9373 13.3825 25.8689 13.3825 25.7778V19.3768C13.3825 19.3312 13.4209 19.2913 13.471 19.2913C13.5094 19.2913 13.5448 19.3141 13.5536 19.3512C14.2086 21.9121 16.2768 24.0201 19.0088 24.5529C19.059 24.5642 19.1033 24.5956 19.1033 24.6469M25.9599 17.3314C25.9923 17.3628 25.9982 17.4112 25.9746 17.4482L22.9741 22.0147C22.924 22.0916 22.8119 22.103 22.747 22.0403L18.0588 17.5137C18.0234 17.4796 18.0234 17.4254 18.0588 17.3941C18.0854 17.3685 18.1296 17.3599 18.1621 17.3799C20.5017 18.7415 23.5081 18.8213 25.8271 17.3314C25.8714 17.3029 25.9245 17.2972 25.9628 17.3314M25.4495 7.47497C25.4937 7.47497 25.535 7.5063 25.5439 7.54903L26.7653 12.8277C26.786 12.916 26.7152 13.0014 26.6237 13.0014H19.9943C19.9471 13.0014 19.9058 12.9644 19.9058 12.916C19.9058 12.8789 19.9294 12.8447 19.9677 12.8362C22.6201 12.2038 24.8034 10.2069 25.3551 7.56897C25.3639 7.52055 25.3993 7.47782 25.4524 7.47782M17.87 0.857464C17.9025 0.826128 17.9526 0.820431 17.991 0.84322L22.7204 3.74034C22.8001 3.78876 22.8148 3.89701 22.747 3.95969L18.0588 8.48625C18.0234 8.52044 17.9674 8.52044 17.9349 8.48625C17.9084 8.46061 17.8995 8.41788 17.9202 8.38655C19.3304 6.12754 19.413 3.22472 17.87 0.985655C17.8405 0.942924 17.8346 0.891648 17.87 0.854615M7.66176 1.35029C7.66176 1.30756 7.69421 1.26768 7.73847 1.25913L13.2055 0.0797718C13.2969 0.059831 13.3855 0.1282 13.3855 0.219358V6.62036C13.3855 6.66594 13.3471 6.70582 13.2969 6.70582C13.2586 6.70582 13.2232 6.68303 13.2143 6.646C12.5594 4.08503 10.4912 1.977 7.75912 1.44429C7.70897 1.4329 7.66471 1.40156 7.66471 1.35029M0.808074 8.66857C0.77562 8.63723 0.769719 8.58881 0.793322 8.55177L3.79384 3.98817C3.84399 3.91126 3.95611 3.89986 4.02397 3.96253L8.71209 8.4891C8.74749 8.52328 8.74749 8.57741 8.71209 8.60875C8.68554 8.63438 8.64128 8.64293 8.60883 8.62299C6.26919 7.25847 3.26277 7.18155 0.94379 8.66857C0.899535 8.69705 0.846428 8.70275 0.808074 8.66857ZM1.32144 18.525C1.27718 18.525 1.23588 18.4937 1.22702 18.451L0.00262541 13.1723C-0.0180271 13.084 0.0527815 12.9986 0.147193 12.9986H6.77665C6.82386 12.9986 6.86516 13.0356 6.86516 13.084C6.86516 13.1211 6.84156 13.1553 6.80321 13.1638C4.15083 13.7962 1.96757 15.7931 1.41585 18.431C1.40405 18.4795 1.37159 18.5222 1.31849 18.5222M8.89796 25.1425C8.86551 25.1739 8.81535 25.1796 8.777 25.1568L4.04757 22.2597C3.96791 22.2112 3.95611 22.103 4.02102 22.0375L8.70914 17.5109C8.74454 17.4767 8.8006 17.4767 8.83305 17.5109C8.85961 17.5365 8.86846 17.5793 8.84781 17.6106C7.43458 19.8696 7.35492 22.7724 8.89501 25.0115C8.92451 25.0542 8.93042 25.1055 8.89501 25.1425M14.1968 12.9558C14.542 12.9644 14.722 12.6681 14.7515 12.3576C14.778 12.0813 14.7013 11.7708 14.5391 11.5372C14.0434 10.8364 12.9547 10.7139 12.2466 11.1982C11.3527 11.785 11.1786 13.0214 11.6388 13.9187C12.3676 15.326 14.1319 15.6763 15.492 14.9813C17.5514 13.9814 18.0942 11.2238 16.6515 9.53742C15.4389 8.11022 13.2232 7.68577 11.4943 8.42073C10.0043 9.03035 8.86551 10.3521 8.47311 11.8648C8.24593 12.7365 8.29019 13.668 8.57342 14.5226C9.36117 16.9298 11.9752 18.2914 14.542 17.8413C16.6043 17.4796 18.0736 15.984 18.4955 14.0896C18.584 13.6965 18.6283 13.3176 18.584 12.9217C18.5781 12.8818 18.5456 12.8476 18.5043 12.8419C18.4542 12.8362 18.4099 12.8704 18.4011 12.9217C18.348 13.292 18.2447 13.6253 18.0913 13.9643C17.3655 15.5795 15.6631 16.7731 13.8251 16.7161C12.8042 16.7161 11.7893 16.36 11.0429 15.6906C10.0575 14.8331 9.6149 13.4686 9.89518 12.2066C10.2404 10.6399 11.7303 9.36365 13.4858 9.42062C14.1201 9.44056 14.7928 9.66561 15.2884 10.0502C16.0378 10.6171 16.3093 11.6141 16.0644 12.5001C15.908 13.0897 15.5628 13.6481 15.0052 13.9386C14.48 14.2093 13.7543 14.2748 13.2084 14.0156C12.6715 13.7677 12.3676 13.2265 12.4561 12.6539C12.5033 12.2978 12.757 11.9417 13.1435 11.8961C13.474 11.8619 13.6893 12.0386 13.6362 12.3947C13.592 12.6795 13.7897 12.9558 14.1998 12.9672" fill="#06242D"/>
        <path d="M37.481 19.3625C36.2832 18.7101 35.345 17.8242 34.6605 16.7018C33.976 15.5794 33.6367 14.3459 33.6367 13.0013C33.6367 11.6568 33.979 10.4204 34.6605 9.3009C35.345 8.17852 36.2832 7.29258 37.481 6.64023C38.6789 5.98788 40.0006 5.66028 41.4522 5.66028C42.7887 5.66028 43.9748 5.9309 45.0104 6.475C45.922 6.95358 46.6685 7.50908 47.2467 8.13579C47.3736 8.27253 47.3529 8.48618 47.2084 8.60012L46.0902 9.48322C45.9545 9.59147 45.7568 9.58007 45.6358 9.45758C45.1638 8.9847 44.6239 8.58303 44.019 8.25828C43.3228 7.8851 42.4671 7.69709 41.4522 7.69709C40.4373 7.69709 39.5286 7.93068 38.6848 8.40072C37.841 8.87075 37.1742 9.51171 36.6874 10.3293C36.2006 11.144 35.9587 12.0356 35.9587 13.0013C35.9587 13.9671 36.2006 14.8587 36.6874 15.6734C37.1742 16.4881 37.838 17.1319 38.6848 17.602C39.5286 18.072 40.4521 18.3056 41.4522 18.3056C42.4524 18.3056 43.3493 18.1147 44.0603 17.7359C44.6829 17.4026 45.2434 16.9867 45.742 16.4853C45.863 16.3628 46.0607 16.3543 46.1964 16.4597L47.3146 17.3428C47.4621 17.4595 47.4798 17.6732 47.3529 17.8099C46.7481 18.4623 45.9781 19.032 45.0428 19.522C43.9866 20.0718 42.7887 20.3481 41.4522 20.3481C40.0006 20.3481 38.6789 20.0205 37.481 19.3682M51.3153 19.6701C50.5069 19.22 49.8696 18.6076 49.4034 17.8242C48.9373 17.0436 48.7072 16.1833 48.7072 15.2433C48.7072 14.3032 48.9402 13.4486 49.4034 12.6737C49.8666 11.8989 50.4951 11.2836 51.2828 10.8278C52.0706 10.372 52.938 10.1441 53.8821 10.1441C54.8262 10.1441 55.673 10.3521 56.4282 10.7651C57.1806 11.181 57.7736 11.7508 58.2014 12.4772C58.6322 13.2065 58.8446 14.024 58.8446 14.9356C58.8446 15.1977 58.8269 15.4455 58.7915 15.682C58.7679 15.8415 58.6263 15.9554 58.4581 15.9554H51.0615C50.9878 15.9554 50.9317 16.021 50.9465 16.0893C51.0822 16.7103 51.4244 17.243 51.9762 17.6874C52.5662 18.1632 53.2714 18.4025 54.0886 18.4025C55.0268 18.4025 55.9001 18.0749 56.7115 17.4168C56.8443 17.3086 57.0419 17.3143 57.1658 17.4339L58.0893 18.3113C58.2191 18.4366 58.2221 18.6389 58.0952 18.7671C57.7176 19.146 57.216 19.485 56.5935 19.7898C55.8411 20.1573 54.9708 20.3396 53.9854 20.3396C52.9999 20.3396 52.1237 20.1145 51.3123 19.6673M56.502 14.326C56.5787 14.326 56.6318 14.2576 56.6141 14.1864C56.4489 13.5312 56.145 13.007 55.6966 12.6111C55.2186 12.1895 54.6108 11.9787 53.8791 11.9787C53.0914 11.9787 52.4453 12.1895 51.9467 12.6111C51.4805 13.0042 51.1412 13.5255 50.9258 14.1779C50.9022 14.2491 50.9583 14.3231 51.0379 14.3231H56.502V14.326ZM67.7842 19.6701C66.9728 19.22 66.3385 18.6076 65.8724 17.8242C65.4062 17.0436 65.1761 16.1833 65.1761 15.2433C65.1761 14.3032 65.4091 13.4486 65.8724 12.6737C66.3385 11.8989 66.964 11.2836 67.7517 10.8278C68.5395 10.372 69.4069 10.1441 70.351 10.1441C71.2951 10.1441 72.1419 10.3521 72.8972 10.7651C73.6495 11.181 74.2425 11.7508 74.6703 12.4772C75.1011 13.2065 75.3135 14.024 75.3135 14.9356C75.3135 15.1977 75.2958 15.4455 75.2604 15.682C75.2368 15.8415 75.0922 15.9554 74.927 15.9554H67.5305C67.4567 15.9554 67.4006 16.021 67.4154 16.0893C67.5511 16.7103 67.8934 17.243 68.4451 17.6874C69.0381 18.1632 69.7403 18.4025 70.5575 18.4025C71.4957 18.4025 72.369 18.0749 73.1804 17.4168C73.3132 17.3086 73.5108 17.3143 73.6348 17.4339L74.5582 18.3113C74.688 18.4366 74.691 18.6389 74.5641 18.7671C74.1865 19.146 73.6849 19.485 73.0624 19.7898C72.31 20.1573 71.4397 20.3396 70.4543 20.3396C69.4688 20.3396 68.5926 20.1145 67.7812 19.6673M72.9739 14.326C73.0476 14.326 73.1037 14.2576 73.086 14.1864C72.9208 13.5312 72.6139 13.007 72.1684 12.6111C71.6905 12.1895 71.0827 11.9787 70.351 11.9787C69.5633 11.9787 68.9171 12.1895 68.4185 12.6111C67.9524 13.0042 67.6131 13.5255 67.3977 14.1779C67.3741 14.2491 67.4301 14.3231 67.5098 14.3231H72.9739V14.326ZM77.9688 19.7812C77.3729 19.4707 76.8978 19.126 76.5438 18.7443C76.4228 18.6161 76.4287 18.4196 76.5556 18.2971L77.4673 17.4168C77.5971 17.2915 77.8095 17.2886 77.9393 17.4168C78.199 17.6647 78.5087 17.8897 78.8746 18.0977C79.3525 18.3683 79.8541 18.505 80.3734 18.505C80.9369 18.505 81.3735 18.3882 81.6833 18.1575C81.9931 17.9267 82.1465 17.6419 82.1465 17.3C82.1465 17.0009 81.9872 16.7673 81.6715 16.5964C81.3558 16.4255 80.8572 16.246 80.1816 16.0551C79.4765 15.8529 78.8952 15.6478 78.4379 15.4427C77.9806 15.2376 77.5853 14.9385 77.2548 14.5453C76.9244 14.1522 76.7592 13.6338 76.7592 12.9957C76.7592 12.48 76.9067 12.0043 77.2017 11.5685C77.4968 11.1326 77.9275 10.7879 78.491 10.5287C79.0546 10.2695 79.7095 10.1413 80.456 10.1413C81.2585 10.1413 81.9725 10.278 82.6009 10.5486C83.0759 10.7537 83.4654 10.9788 83.7751 11.2238C83.9286 11.3463 83.9404 11.5685 83.7987 11.7052L82.89 12.5826C82.772 12.6965 82.5832 12.7079 82.4504 12.6111C82.2468 12.4658 82.0049 12.3348 81.7246 12.218C81.3293 12.0556 80.9074 11.973 80.456 11.973C79.9633 11.973 79.5768 12.0755 79.2935 12.2806C79.0103 12.4829 78.8716 12.7222 78.8716 12.9957C78.8716 13.2948 79.0221 13.5227 79.326 13.6793C79.6299 13.836 80.1255 14.0155 80.8159 14.2206C81.5329 14.4257 82.1229 14.6279 82.5802 14.8331C83.0375 15.0382 83.4329 15.3373 83.7633 15.7304C84.0938 16.1235 84.259 16.642 84.259 17.2801C84.259 17.8242 84.0997 18.3312 83.784 18.7984C83.4683 19.2685 83.0139 19.6416 82.4209 19.9208C81.8308 20.2 81.1405 20.3396 80.3498 20.3396C79.4765 20.3396 78.6799 20.1516 77.9629 19.7784M113.934 10.3635H112.497C112.311 10.3635 112.161 10.5087 112.161 10.6882V11.1298C112.161 11.2038 112.072 11.2409 112.016 11.1924C111.272 10.5372 110.343 10.147 109.334 10.147H109.331C106.419 10.1498 104.059 12.4316 104.059 15.2433C104.059 18.0549 106.419 20.3367 109.331 20.3396H109.337C110.346 20.3396 111.275 19.9493 112.019 19.2941C112.075 19.2457 112.164 19.2827 112.164 19.3568V19.8097C112.164 19.9892 112.314 20.1345 112.5 20.1345H113.937C114.123 20.1345 114.273 19.9892 114.273 19.8097V10.6882C114.273 10.5087 114.123 10.3635 113.937 10.3635M109.216 18.4423C107.422 18.4423 105.968 17.0095 105.968 15.2461C105.968 13.4828 107.422 12.0499 109.216 12.0499C111.01 12.0499 112.464 13.4828 112.464 15.2461C112.464 17.0095 111.01 18.4423 109.216 18.4423ZM119.663 18.0977H118.69C118.374 18.0977 118.117 17.8498 118.117 17.545V6.18729C118.117 6.00782 117.967 5.86253 117.781 5.86253H116.341C116.155 5.86253 116.005 6.00782 116.005 6.18729V17.7302C116.005 19.0577 117.12 20.1345 118.495 20.1345H119.663C119.849 20.1345 120 19.9892 120 19.8097V18.4224C120 18.2429 119.849 18.0977 119.663 18.0977ZM64.1877 18.0977H63.2141C62.8984 18.0977 62.6417 17.8498 62.6417 17.545V6.18729C62.6417 6.00782 62.4912 5.86253 62.3054 5.86253H60.8656C60.6797 5.86253 60.5293 6.00782 60.5293 6.18729V17.7302C60.5293 19.0577 61.6445 20.1345 63.0194 20.1345H64.1877C64.3736 20.1345 64.524 19.9892 64.524 19.8097V18.4224C64.524 18.2429 64.3736 18.0977 64.1877 18.0977ZM102.194 10.3635H100.752C100.566 10.3635 100.415 10.5087 100.415 10.6882V15.3829C100.412 16.7531 99.2999 17.8812 97.8838 17.9495H97.8779C96.4853 18.0179 95.3435 16.9696 95.3435 15.6221V10.6882C95.3435 10.5087 95.193 10.3635 95.0072 10.3635H93.5615C93.3756 10.3635 93.2251 10.5087 93.2251 10.6882V15.4996C93.2251 16.3429 93.4228 17.1006 93.8182 17.7672C94.2135 18.4338 94.7623 18.9551 95.4674 19.3283C96.1725 19.7043 96.9809 19.8895 97.8838 19.8895C98.6774 19.8895 99.3855 19.7043 100.005 19.3283C100.099 19.2713 100.188 19.2115 100.277 19.1488C100.333 19.1061 100.415 19.1488 100.415 19.2172V20.7128C100.415 21.4192 100.179 22.0061 99.7071 22.4675C99.235 22.929 98.7512 23.1626 98.0018 23.1626C97.2524 23.1626 96.6623 22.9319 96.1814 22.4675C95.9159 22.2112 95.727 21.9177 95.609 21.5873C95.5648 21.4648 95.4409 21.385 95.3081 21.385H93.6647C93.5231 21.385 93.414 21.5104 93.4405 21.6443C93.532 22.1229 93.7001 22.5672 93.9421 22.9803C94.3374 23.6469 94.8862 24.1682 95.5913 24.5414C96.2965 24.9174 97.099 25.1026 98.0018 25.1026C98.9046 25.1026 99.5832 24.9174 100.288 24.5414C100.993 24.1682 101.542 23.6469 101.938 22.9803C102.333 22.3137 102.531 21.5588 102.531 20.7128V10.6911C102.531 10.5116 102.38 10.3663 102.194 10.3663M89.3779 12.2351H91.1953C91.3812 12.2351 91.5316 12.0898 91.5316 11.9103V10.6882C91.5316 10.5087 91.3812 10.3635 91.1953 10.3635H88.242C88.2184 10.3635 88.2007 10.3464 88.2007 10.3236C88.2007 10.3036 88.2154 10.2894 88.2331 10.2837C88.8203 10.147 89.2569 9.6399 89.2569 9.03028V7.53472C89.2569 7.35525 89.1064 7.20997 88.9206 7.20997H87.6844C87.4985 7.20997 87.348 7.35525 87.348 7.53472V9.37782C87.348 9.92192 86.8907 10.3635 86.3272 10.3635H85.6427C85.4568 10.3635 85.3064 10.5087 85.3064 10.6882V11.9103C85.3064 12.0898 85.4568 12.2351 85.6427 12.2351H87.0235C87.0884 12.2351 87.1444 12.2863 87.1444 12.3518V17.7302C87.1444 19.0577 88.2597 20.1345 89.6346 20.1345H91.1953C91.3812 20.1345 91.5316 19.9892 91.5316 19.8097V18.4224C91.5316 18.2429 91.3812 18.0977 91.1953 18.0977H89.8293C89.5136 18.0977 89.2569 17.8498 89.2569 17.545V12.349C89.2569 12.2835 89.31 12.2322 89.3779 12.2322" fill="#06242D"/>
    </g>
    <defs>
        <clipPath id="clip0_8532_25995">
            <rect width="120" height="25.8462" fill="white" transform="translate(0 0.0769043)"/>
        </clipPath>
    </defs>
</svg>
