<svg width="50" height="50" viewBox="0 0 50 50" fill="none" xmlns="http://www.w3.org/2000/svg">
<path d="M5.63958 50H23.9812C24.8437 50 25.5437 49.3 25.5437 48.4375C25.5437 48.1042 25.5229 34.1875 25.5208 33.8542C25.5208 32.9917 24.8208 32.2917 23.9583 32.2917H19.2708V27.0833H23.9583C24.8208 27.0833 25.5208 26.3833 25.5208 25.5208V19.6521C25.5208 14.5604 29.6646 10.4167 34.7562 10.4167H39.0625V15.625H36.4583C34.4479 15.625 32.8125 17.2604 32.8125 19.2708V25.5208C32.8125 26.3833 33.5125 27.0833 34.375 27.0833H40.7083L39.4062 32.2917H34.375C33.5125 32.2917 32.8125 32.9917 32.8125 33.8542V48.4375C32.8125 49.3 33.5125 50 34.375 50H44.3604C47.4708 50 50 47.4708 50 44.3604V5.63958C50 2.52917 47.4708 0 44.3604 0H5.63958C2.52917 0 0 2.52917 0 5.63958V44.3625C0 47.4708 2.52917 50 5.63958 50ZM3.125 5.63958C3.125 4.25208 4.25208 3.125 5.63958 3.125H44.3625C45.75 3.125 46.8771 4.25208 46.8771 5.63958V44.3625C46.8771 45.75 45.75 46.8771 44.3625 46.8771H35.9375V35.4167H40.625C41.3417 35.4167 41.9667 34.9292 42.1417 34.2333L44.225 25.9C44.4708 24.9146 43.7271 23.9583 42.7083 23.9583H35.9375V19.2708C35.9375 18.9875 36.175 18.75 36.4583 18.75H40.625C41.4875 18.75 42.1875 18.05 42.1875 17.1875V8.85417C42.1875 7.99167 41.4875 7.29167 40.625 7.29167H34.7562C27.9417 7.29167 22.3958 12.8375 22.3958 19.6521V23.9583H17.7083C16.8458 23.9583 16.1458 24.6583 16.1458 25.5208V33.8542C16.1458 34.7167 16.8458 35.4167 17.7083 35.4167H22.3958V46.875H5.63958C4.25208 46.875 3.125 45.7479 3.125 44.3604V5.63958Z" fill="white"/>
</svg>
