<svg width="50" height="51" viewBox="0 0 50 51" fill="none" xmlns="http://www.w3.org/2000/svg">
<g clip-path="url(#clip0_3315_12)">
<path d="M49.951 14.9941C49.8339 12.2843 49.4042 10.4213 48.7888 8.80703C48.1539 7.0935 47.1772 5.55937 45.8975 4.28404C44.6471 2.98887 43.1332 1.98246 41.4727 1.34499C39.8809 0.71725 38.064 0.279039 35.4073 0.159562C32.7308 0.0299665 31.8811 0 25.0926 0C18.3042 0 17.4545 0.0299665 14.7879 0.149443C12.1312 0.26892 10.3048 0.70752 8.72249 1.33487C7.04217 1.98246 5.53812 2.97875 4.2878 4.28404C3.01803 5.55937 2.03173 7.10361 1.40638 8.7973C0.790954 10.4213 0.361336 12.2742 0.244202 14.984C0.117147 17.7141 0.0877686 18.5808 0.0877686 25.505C0.0877686 32.4292 0.117147 33.2959 0.234281 36.0158C0.351415 38.7257 0.781415 40.5886 1.39685 42.2029C2.03173 43.9165 3.01803 45.4506 4.2878 46.7259C5.53812 48.0211 7.05209 49.0275 8.71257 49.665C10.3048 50.2927 12.1213 50.7309 14.7784 50.8504C17.4446 50.9703 18.2947 50.9998 25.0831 50.9998C31.8715 50.9998 32.7212 50.9703 35.3878 50.8504C38.0445 50.7309 39.871 50.2927 41.4532 49.665C44.8135 48.3398 47.4702 45.63 48.7693 42.2029C49.3844 40.5789 49.8144 38.7257 49.9315 36.0158C50.0487 33.2959 50.078 32.4292 50.078 25.505C50.078 18.5808 50.0681 17.7141 49.951 14.9941ZM45.4484 35.8166C45.3408 38.3073 44.9306 39.6523 44.5888 40.5489C43.7486 42.7707 42.0198 44.5341 39.8416 45.3911C38.9625 45.7398 37.6344 46.1581 35.202 46.2675C32.5648 46.3873 31.7739 46.4169 25.1026 46.4169C18.4313 46.4169 17.6304 46.3873 15.0027 46.2675C12.5608 46.1581 11.2422 45.7398 10.3631 45.3911C9.27916 44.9824 8.29249 44.3348 7.49163 43.488C6.66139 42.661 6.0265 41.6647 5.62588 40.5591C5.28402 39.6624 4.87386 38.3073 4.76664 35.8267C4.64913 33.1367 4.62013 32.3296 4.62013 25.5248C4.62013 18.7201 4.64913 17.9032 4.76664 15.2234C4.87386 12.7326 5.28402 11.3877 5.62588 10.491C6.0265 9.38496 6.66139 8.37894 7.50155 7.56167C8.31195 6.71483 9.2887 6.06724 10.373 5.659C11.2521 5.31029 12.5807 4.89193 15.0126 4.78218C17.6499 4.66271 18.4412 4.63274 25.1121 4.63274C31.7933 4.63274 32.5843 4.66271 35.2119 4.78218C37.6538 4.89193 38.9724 5.31029 39.8515 5.659C40.9355 6.06724 41.9222 6.71483 42.723 7.56167C43.5533 8.38867 44.1881 9.38496 44.5888 10.491C44.9306 11.3877 45.3408 12.7424 45.4484 15.2234C45.5655 17.9133 45.5949 18.7201 45.5949 25.5248C45.5949 32.3296 45.5655 33.1266 45.4484 35.8166Z" fill="white"/>
<path d="M25.0927 12.4038C18.0017 12.4038 12.2484 18.2718 12.2484 25.505C12.2484 32.7382 18.0017 38.6062 25.0927 38.6062C32.1841 38.6062 37.937 32.7382 37.937 25.505C37.937 18.2718 32.1841 12.4038 25.0927 12.4038ZM25.0927 34.0034C20.4924 34.0034 16.7609 30.1977 16.7609 25.505C16.7609 20.8123 20.4924 17.0066 25.0927 17.0066C29.6934 17.0066 33.4245 20.8123 33.4245 25.505C33.4245 30.1977 29.6934 34.0034 25.0927 34.0034Z" fill="white"/>
<path d="M41.4438 11.8858C41.4438 13.5748 40.1011 14.9443 38.4448 14.9443C36.7889 14.9443 35.4463 13.5748 35.4463 11.8858C35.4463 10.1964 36.7889 8.82727 38.4448 8.82727C40.1011 8.82727 41.4438 10.1964 41.4438 11.8858Z" fill="white"/>
</g>
<defs>
<clipPath id="clip0_3315_12">
<rect width="50" height="51" fill="white"/>
</clipPath>
</defs>
</svg>
