<svg width="300" height="60" viewBox="0 0 300 60" fill="none" xmlns="http://www.w3.org/2000/svg">
<path fill-rule="evenodd" clip-rule="evenodd" d="M121.131 32.467C120.807 32.719 118.287 34.4467 117.747 34.8066C113.932 37.4342 109.901 38.946 106.625 38.946C104.105 38.946 103.206 37.9382 103.206 36.4624C103.206 35.5999 103.528 34.7374 103.658 34.3902C103.696 34.2882 103.718 34.2307 103.709 34.2307C103.709 34.2307 103.458 34.4107 103.386 34.4467C98.5263 38.2621 92.2272 39.5579 88.8798 39.5579C85.6043 39.5579 83.6246 38.73 82.5447 37.1103L82.3648 36.8583L81.8608 37.0743C78.5494 38.5501 73.7621 40.0978 70.3066 40.0978C67.895 40.0978 65.6633 39.306 65.6633 36.3184C65.6633 31.9631 71.1345 24.4762 71.1345 24.4762C71.1345 24.4762 71.0265 24.5842 70.7746 24.8002C70.6894 24.8752 70.5923 24.9609 70.4838 25.0567C67.1556 27.9964 53.1288 40.3858 44.0307 40.3858C41.943 40.3858 39.2434 39.8459 39.2434 36.5704C39.2434 33.8708 41.0071 30.1994 42.9148 27.0678C44.1027 25.0881 47.2342 20.4089 47.2342 20.4089C45.7584 21.9206 19.3385 44.7051 4.22079 44.7051C2.70902 44.7051 1.5572 44.2372 0.83731 43.2653C-0.0985457 42.0415 -0.0985458 40.4218 0.117421 39.5939C0.261399 39.018 0.765322 37.6862 1.88115 37.6862H1.98913C2.44257 37.7211 2.65941 37.9926 2.93442 38.3369L2.96098 38.3701L2.97286 38.3852C3.36634 38.8862 3.83742 39.4859 5.08466 39.4859H5.40861C17.3228 38.6221 29.8488 29.9474 38.2716 23.4684C42.7709 20.0129 51.0136 13.4619 55.2969 8.56668C55.3329 8.4947 59.7603 3.20351 62.3879 1.15182C63.6117 0.179974 65.4834 0 66.8152 0C67.3551 0 67.931 0.0359956 68.5069 0.107984C68.9748 0.143979 69.5507 0.323951 69.7307 0.863868C69.9827 1.58376 69.4428 2.6276 68.3269 3.67144C63.5757 8.17075 60.7681 11.2663 56.9527 15.8016C54.973 18.1412 47.2702 28.1117 47.2702 33.2589C47.2702 34.7707 48.386 34.8066 48.7819 34.8066C52.9933 34.8066 68.147 24.2243 74.698 16.8454C75.6254 15.8185 76.5529 14.7307 77.5085 13.61L77.5089 13.6095L77.7575 13.318L78.0171 13.015L78.0173 13.0148C79.25 11.5763 80.6458 9.94736 82.2928 8.09875C83.0127 7.30688 84.9924 5.47116 88.1239 5.47116C89.3837 5.47116 89.9956 5.72312 90.3915 5.93909C90.6435 6.08307 90.8235 6.26304 90.8595 6.515C90.9314 6.94693 90.7155 7.73881 89.3477 9.21459L89.3117 9.28657C88.5198 10.1504 87.512 11.1943 86.5401 12.1661L86.5158 12.1911C85.0477 13.6949 83.5476 15.2316 82.6527 16.3055C81.5369 17.6373 72.1783 29.0115 72.1783 33.9068C72.1783 36.0305 74.05 36.1025 74.9139 36.1025C78.0814 36.1025 81.7529 34.3747 81.7529 34.3747C81.7529 31.2072 83.3726 28.2197 86.3242 25.88C89.0597 23.7204 92.6232 22.4246 95.8987 22.4246C99.9661 22.4246 100.434 24.4042 100.434 25.2681C100.434 28.7596 96.1867 32.1071 88.3039 35.0226L87.9439 35.1666C87.9439 35.1666 88.9518 36.2824 91.7593 36.3184C100.002 36.3544 106.409 29.0115 108.389 26.132C108.466 26.0241 108.589 25.8438 108.739 25.6247L108.739 25.624L108.74 25.6233C108.939 25.3308 109.186 24.9696 109.433 24.6202C109.541 24.4762 109.793 24.3323 110.009 24.2603C111.34 23.8283 113.284 23.8283 113.284 23.8283C114.544 23.8283 115.3 24.0443 115.516 24.4402C115.732 24.8722 115.3 25.6641 114.292 26.8519C111.124 30.5233 109.541 33.0429 109.577 34.3387C109.613 34.9866 110.009 35.3826 110.728 35.3826C112.636 35.3826 117.459 32.9709 121.851 29.0835C122.535 28.4716 124.478 26.7079 125.63 24.8002C125.797 24.5334 126.025 24.4211 126.173 24.3487L126.206 24.3323C126.612 24.1426 127.223 24.0345 127.546 23.9773C127.652 23.9585 127.727 23.9452 127.754 23.9363C128.69 23.8283 129.949 23.8643 130.165 23.9003C130.597 23.9363 131.317 24.1163 131.353 24.8722C131.389 25.7001 130.669 26.8159 129.877 27.8597C129.59 28.2197 127.79 30.6313 127.79 30.6313C127.79 30.6313 135.745 25.6641 140.316 24.1883C140.64 24.0803 141.648 23.8283 143.339 23.8283C143.627 23.8283 143.915 23.8283 144.239 23.8643C144.671 23.8643 145.571 24.0083 145.535 24.8722C145.535 25.4121 145.139 26.204 144.455 27.0678C144.283 27.2684 144.134 27.469 143.972 27.6877C143.93 27.7437 143.887 27.801 143.843 27.8597L143.775 27.9485C141.945 30.3155 139.488 33.4954 139.488 35.1306C139.488 36.0305 139.992 36.5704 140.856 36.5704C141.108 36.5704 145.139 36.3544 149.638 32.539C149.782 32.395 149.962 32.323 150.07 32.323C150.214 32.323 150.322 32.467 150.358 32.755C150.708 34.4001 149.561 35.5347 149.365 35.7283L149.35 35.7425C146.507 38.2981 141.612 39.234 137.976 39.306H137.904C137.436 39.306 133.477 39.234 133.477 36.3184C133.477 33.9428 136.896 29.5875 137.832 28.4716L137.848 28.4522C137.998 28.2646 138.298 27.8907 138.228 27.7517C138.12 27.5358 137.544 27.7157 137.364 27.7877C135.133 28.5436 130.705 31.2072 126.278 35.2386C126.026 35.4546 124.514 37.0383 123.65 38.0462C123.326 38.4061 123.003 38.5861 122.535 38.6941C121.923 38.802 120.411 38.982 119.007 38.802C117.963 38.6581 118.359 37.5782 118.683 36.9663C118.984 36.1728 120.242 34.0063 120.828 32.9971L120.828 32.997L120.828 32.9964C121.013 32.6785 121.131 32.4756 121.131 32.467ZM94.3149 25.6641C92.0113 25.6641 87.296 28.8316 87.296 32.503V32.8629C87.296 32.8629 88.3759 32.431 88.9878 32.1431C91.3274 31.1352 95.5747 28.9396 95.6467 26.8879C95.6467 26.6359 95.6107 26.312 95.3588 26.024C95.1428 25.772 94.7829 25.6641 94.3149 25.6641ZM165.044 44.4171C159.033 44.4171 155.002 41.1056 155.002 36.1384C155.002 27.1038 166.628 17.6013 173.467 17.6013C176.31 17.6013 177.642 19.185 177.642 20.9487C177.642 21.5966 177.354 22.2805 176.598 22.6405C176.238 22.8205 175.77 22.9284 175.266 22.9284C174.403 22.9284 173.575 22.6405 172.855 22.2085C172.387 21.9206 171.883 22.0646 171.739 22.1366C170.299 22.5685 165.728 24.5122 162.092 29.0475C161.229 30.0553 159.285 32.6829 159.285 35.4905C159.285 38.4781 161.229 40.4218 164.288 40.4218C169.219 40.4218 174.763 36.5703 180.27 29.2995C180.342 29.2275 183.365 25.3401 185.597 22.1726C188.476 18.0692 191.572 13.8218 192.724 12.2741C195.243 8.92659 197.475 6.51496 198.627 5.47113C200.643 3.59941 204.314 0.863832 209.029 0.863832C212.557 0.863832 214.896 2.62756 214.896 5.29115C214.896 7.81077 212.809 8.67463 211.837 8.67463C211.045 8.67463 210.577 8.2427 210.577 7.52281C210.577 7.30684 210.613 6.58695 210.649 6.44297C210.649 6.4048 210.652 6.34762 210.656 6.27669L210.656 6.27617C210.679 5.87876 210.727 5.05104 210.361 4.71524C210.073 4.42729 209.533 4.49927 209.533 4.49927C206.906 4.60726 202.946 7.81076 198.627 13.2459C195.351 17.3853 192.148 21.6686 189.844 24.9441C189.484 25.4481 186.965 28.9035 184.481 32.179C180.99 36.7143 173.791 44.4171 165.044 44.4171ZM115.228 19.3651C114.688 19.3651 112.96 19.2931 112.96 18.5012C112.96 17.0614 115.948 14.6498 119.151 14.6138H119.223C119.943 14.6138 120.447 14.7578 120.627 15.0817C120.777 15.2914 120.652 15.6756 120.585 15.8816C120.572 15.9231 120.561 15.9574 120.555 15.9816C120.339 16.5215 119.043 19.3651 115.228 19.3651ZM247.975 18.8971C247.975 19.689 249.703 19.7609 250.243 19.7609C254.058 19.7609 255.354 16.9174 255.57 16.3775C255.573 16.3666 255.577 16.3536 255.581 16.3388C255.587 16.3212 255.593 16.3009 255.6 16.2786L255.601 16.2775C255.667 16.0715 255.792 15.6873 255.642 15.4776C255.462 15.1537 254.958 15.0097 254.238 15.0097H254.166C250.963 15.0457 247.975 17.4573 247.975 18.8971ZM266.44 35.4906C266.872 35.4906 268.528 35.4546 268.528 35.4546L267.412 36.8584C266.656 37.9286 265.792 39.1497 264.872 40.4507C259.881 47.5072 253.227 56.9137 253.015 57.3392C252.727 57.9151 252.655 58.383 252.835 58.707C253.015 58.9949 253.374 59.2109 254.202 59.2109C257.442 59.2109 259.71 56.0794 259.71 56.0794C260.719 54.9017 262.987 51.3648 265.278 47.7918C265.437 47.5427 265.597 47.2934 265.757 47.0448C265.757 47.0448 269.716 40.9617 270.04 40.4938C270.121 40.3831 270.216 40.2483 270.324 40.0947C271.131 38.9495 272.671 36.7624 274.575 35.7785C275.691 35.2026 277.023 34.9146 278.895 34.6627C280.406 34.4827 284.402 34.4107 285.626 34.4107C287.929 34.4107 290.665 34.4827 293.688 34.5907H294.12C295.884 34.5907 297.936 34.1948 297.936 33.1149C297.936 31.6392 295.452 30.7393 291.385 30.7393C287.677 30.7393 284.474 31.1352 281.09 31.6032C278.607 31.9631 275.511 32.431 275.511 32.431L275.763 32.0351C283.07 21.1288 287.353 16.8814 289.693 15.2257C290.629 14.5778 293.112 13.066 296.424 13.066C297.144 13.066 297.828 13.138 298.548 13.282C298.566 13.282 298.584 13.291 298.602 13.3C298.62 13.309 298.638 13.318 298.656 13.318C298.764 13.354 299.015 13.426 299.267 13.426C299.663 13.426 299.915 13.246 299.987 12.886C300.059 12.5261 299.807 11.9862 299.663 11.7702C298.368 10.0065 296.244 9.10662 293.256 9.10662C286.416 9.10662 281.215 16.6611 275.206 25.388L275.115 25.5201C274.803 25.9735 274.489 26.4315 274.174 26.8922C272.961 28.6626 271.721 30.4728 270.436 32.2151H270.4C266.584 32.431 262.913 32.863 260.933 33.1149L259.71 33.2589L259.961 32.899C259.976 32.8849 260.272 32.445 260.676 31.8438C261.304 30.9111 262.194 29.5899 262.697 28.8676C271.516 16.1975 275.835 14.0739 279.219 13.6419C279.264 13.6329 279.331 13.6217 279.412 13.6082C279.655 13.5677 280.019 13.5069 280.262 13.426C280.55 13.318 280.586 13.102 280.586 12.85C280.586 11.8782 279.039 10.4744 276.591 10.4744C273.927 10.4744 271.984 11.8062 271.984 11.8062C267.874 14.0932 262.452 21.9497 257.197 29.5649L257.082 29.7314C257.082 29.7314 255.498 30.7393 254.526 32.359C254.49 32.395 253.41 32.935 253.123 33.0789C250.315 34.5187 247.039 35.5625 245.744 35.5625C244.376 35.5625 244.232 34.6987 244.232 34.1228C244.232 33.2589 244.772 32.1071 245.996 30.4873C246.782 29.4148 248.066 27.8805 249.529 26.1315L249.559 26.096C250.099 25.4841 250.351 24.8722 250.279 24.5123C250.171 24.0083 248.731 23.9363 247.903 23.9363C247.039 23.9363 245.564 24.0803 244.124 24.6562C244.052 24.6922 243.908 24.9082 243.908 24.9082C243.249 25.8183 242.207 26.9746 241.76 27.4707C241.694 27.5436 241.641 27.6023 241.604 27.6438C237.033 32.503 231.166 35.0226 229.402 35.0226C228.682 35.0226 228.322 34.8067 228.322 34.1588C228.322 32.359 232.354 27.9677 232.822 27.4638C233.218 27.0319 234.333 25.808 234.333 24.9082C234.333 24.2243 233.866 23.6844 232.03 23.6844C230.554 23.6844 229.294 24.0443 229.294 24.0443C226.343 24.8722 218.064 28.8676 214.572 31.2432C214.572 31.2432 216.012 29.1555 216.516 28.4716C220.499 22.9949 227.468 14.9355 229.33 12.7825C229.622 12.4451 229.788 12.2528 229.798 12.2381C231.634 10.2224 232.714 8.81866 233.218 7.88281C233.362 7.59485 233.506 7.19891 233.398 6.87496C233.326 6.69499 233.182 6.55101 232.93 6.44303C232.534 6.29905 232.102 6.22706 231.634 6.22706C230.734 6.22706 229.834 6.51502 229.402 6.69499C228.286 7.12692 227.458 7.63084 226.199 8.63869C224.23 10.2337 220.342 15.6045 217.521 19.5016C217.35 19.7378 217.183 19.9687 217.02 20.1929C215.976 21.6687 215.04 22.9645 214.464 23.6844C211.621 27.2118 201.902 35.3106 196.143 35.3106C194.56 35.3106 194.344 34.3027 194.344 33.8708C194.272 30.7033 200.823 27.5718 204.062 26.4919C204.242 26.42 204.638 26.312 204.638 26.312C206.114 25.88 206.33 25.3761 206.258 25.0522C205.898 23.7564 204.098 23.5764 203.054 23.5764C197.439 23.5764 187.973 29.1195 187.973 35.0226C187.973 38.2981 190.168 38.982 192.868 38.982C197.583 38.982 205.25 34.6987 209.749 31.2072C209.749 31.2072 207.41 34.5547 206.438 36.0665C205.574 37.3983 205.574 37.9742 205.682 38.2621C205.79 38.4421 205.97 38.5501 206.258 38.5861C206.906 38.6581 208.093 38.6221 208.093 38.6221C209.281 38.6221 209.893 38.2621 209.893 38.2621C210.685 37.9022 212.305 36.7864 212.845 36.3544C216.336 33.5109 219.252 31.5312 221.447 30.1634C222.419 29.5515 225.335 27.9677 226.595 27.4638C226.739 27.3918 226.847 27.3918 226.883 27.4278C226.919 27.5358 226.811 27.6798 226.811 27.6798C224.903 29.8394 222.779 32.863 221.951 34.5547C221.699 35.0946 221.483 35.8505 221.483 36.5344C221.483 38.1542 222.707 38.982 224.651 38.982C230.126 38.982 237.677 34.0889 238.771 33.3801C238.856 33.3247 238.902 33.2949 238.905 33.2949C238.905 33.2949 238.833 33.4389 238.725 33.6189C238.437 34.1948 237.861 35.4546 237.861 36.5344C237.861 38.4781 239.805 38.982 241.424 38.982C246.931 38.982 253.411 35.2746 253.411 35.2746L252.835 36.0665C247.651 43.1574 237.717 56.7993 237.393 57.3752C237.105 57.9511 237.033 58.419 237.213 58.743C237.393 59.0669 237.789 59.2829 238.653 59.2829C241.424 59.2829 243.332 57.1232 244.052 56.2954L244.124 56.2234C245.24 54.9996 247.831 51.0402 250.351 47.1888C250.783 46.5049 251.719 45.1011 251.719 45.1011C252.871 43.3374 255.03 40.1338 256.398 38.5141C257.442 37.2903 258.522 36.5344 259.89 36.1025C261.653 35.5625 263.741 35.5266 266.44 35.4906Z" fill="#263E6A"/>
</svg>
