<?xml version="1.0" standalone="no"?>
<!DOCTYPE svg PUBLIC "-//W3C//DTD SVG 20010904//EN"
 "http://www.w3.org/TR/2001/REC-SVG-20010904/DTD/svg10.dtd">
<svg version="1.0" xmlns="http://www.w3.org/2000/svg"
 width="2413.000000pt" height="512.000000pt" viewBox="0 0 2413.000000 512.000000"
 preserveAspectRatio="xMidYMid meet">

<g transform="translate(0.000000,512.000000) scale(0.100000,-0.100000)"
fill="#000000" stroke="none">
<path d="M13320 4763 c-47 -18 -139 -120 -207 -229 -72 -116 -264 -483 -348
-664 -21 -47 -72 -155 -112 -240 -41 -85 -91 -191 -111 -234 -59 -125 -358
-724 -400 -801 -35 -64 -63 -115 -128 -230 -12 -22 -42 -71 -66 -110 -24 -38
-61 -99 -83 -134 -60 -96 -87 -121 -132 -121 -21 0 -105 -5 -188 -10 -82 -5
-220 -10 -305 -11 -171 -2 -188 -7 -239 -64 -56 -64 -38 -87 63 -79 39 2 125
6 191 9 66 2 185 8 265 14 80 5 149 6 154 1 18 -18 -162 -238 -315 -386 -291
-279 -620 -417 -862 -359 -112 27 -174 61 -253 139 -57 57 -80 90 -116 166
-25 52 -48 111 -51 130 -3 19 -11 49 -17 65 -11 28 -13 28 -20 10 -15 -35 -11
-100 10 -165 11 -34 20 -70 20 -79 0 -49 104 -265 157 -326 23 -25 108 -95
117 -95 3 0 24 -11 46 -25 38 -24 46 -25 195 -25 136 0 161 3 197 20 23 11 48
20 56 20 26 0 192 88 228 121 11 10 24 19 29 19 28 0 286 240 396 369 77 90
212 265 261 337 23 34 49 66 59 72 11 7 179 15 455 22 242 6 464 15 494 20 73
12 386 17 397 7 4 -5 6 -131 5 -280 -2 -165 1 -308 8 -362 35 -279 142 -405
343 -405 69 0 89 4 144 31 98 48 212 171 283 307 12 23 26 44 30 47 5 3 11 18
15 34 3 16 13 35 21 42 15 12 20 69 6 69 -10 0 -42 -33 -42 -43 0 -12 -69
-100 -118 -151 -65 -67 -124 -105 -196 -127 -77 -24 -93 -24 -159 1 -64 24
-105 59 -141 121 -45 79 -55 156 -57 443 -1 239 1 261 17 273 13 10 72 13 237
13 l220 0 33 36 c19 19 34 43 34 53 0 39 -16 41 -266 41 -182 0 -244 3 -252
13 -10 12 0 276 13 337 3 14 14 108 25 210 30 288 68 637 80 725 72 570 87
1232 31 1348 -30 63 -93 92 -151 70z m-7 -278 c4 -50 5 -139 2 -200 -3 -60 -5
-159 -6 -220 0 -60 -7 -209 -14 -330 -8 -121 -19 -299 -26 -395 -6 -96 -19
-272 -29 -390 -27 -309 -43 -524 -55 -742 -5 -73 -12 -132 -19 -137 -6 -5 -72
-11 -146 -15 -215 -9 -285 -12 -450 -24 -190 -13 -621 -19 -638 -8 -18 11 -15
30 8 51 11 10 20 22 20 26 0 4 17 34 38 66 22 32 51 79 65 104 14 26 66 118
115 205 139 245 443 840 579 1134 295 634 449 929 502 960 37 22 46 8 54 -85z"/>
<path d="M3240 4700 c-41 -11 -89 -19 -107 -20 -18 0 -67 -11 -109 -25 -42
-14 -84 -25 -94 -25 -10 0 -37 -9 -61 -20 -24 -11 -52 -20 -63 -20 -10 0 -44
-11 -75 -24 -31 -14 -87 -37 -125 -51 -38 -15 -77 -31 -85 -35 -9 -5 -56 -29
-106 -53 -49 -24 -106 -54 -125 -65 -19 -12 -49 -29 -67 -37 -18 -9 -37 -23
-44 -31 -6 -8 -17 -14 -23 -14 -6 0 -43 -22 -81 -49 -39 -28 -92 -66 -120 -85
-27 -20 -66 -51 -86 -69 -20 -18 -57 -51 -84 -72 -68 -57 -246 -253 -302 -336
-70 -102 -77 -114 -132 -221 -83 -162 -124 -301 -140 -470 -24 -274 44 -515
191 -671 95 -100 298 -219 453 -265 39 -12 108 -33 155 -47 47 -14 97 -25 111
-25 15 0 55 -9 89 -20 34 -11 82 -20 105 -20 24 0 71 -9 106 -19 35 -11 95
-22 133 -26 37 -4 93 -15 124 -26 30 -10 67 -19 81 -19 15 0 43 -9 64 -20 20
-11 43 -20 51 -20 26 0 148 -69 202 -115 86 -74 118 -174 95 -298 -19 -104
-76 -194 -168 -266 -79 -62 -203 -121 -256 -121 -18 0 -60 -5 -93 -11 -44 -8
-78 -8 -134 1 -117 18 -121 20 -136 56 -21 51 -50 46 -92 -14 -52 -74 -32
-145 53 -194 36 -20 52 -22 162 -21 97 2 132 6 170 22 26 11 66 25 88 30 22 6
49 17 60 25 11 9 26 16 34 16 46 1 190 111 277 211 138 158 182 446 94 618
-34 68 -130 154 -223 200 -44 23 -85 41 -92 41 -6 0 -28 9 -50 20 -22 11 -51
20 -66 20 -15 0 -44 7 -65 16 -22 9 -71 20 -111 25 -40 4 -102 17 -139 28 -36
12 -88 21 -114 21 -27 0 -77 9 -112 20 -34 11 -79 20 -99 20 -20 0 -65 9 -100
19 -35 10 -82 22 -104 25 -46 8 -153 41 -205 64 -19 9 -49 21 -66 27 -50 19
-196 120 -240 167 -101 107 -144 219 -151 388 -4 104 -2 127 25 230 28 108 37
135 90 250 42 90 168 290 202 320 3 3 33 39 67 80 76 93 194 208 299 290 10 8
38 30 62 48 23 19 75 55 115 80 40 26 82 53 93 60 10 6 82 43 159 81 142 70
216 100 315 128 30 8 60 19 65 23 6 4 37 13 70 20 33 6 89 20 124 31 35 10 84
19 110 19 25 0 87 7 136 15 120 20 409 20 490 0 33 -8 74 -14 92 -15 40 0 158
-47 214 -86 105 -71 159 -173 159 -300 0 -112 -66 -252 -199 -417 -75 -94 -55
-105 36 -19 72 69 136 149 189 237 77 129 100 233 83 374 -25 207 -163 339
-426 405 -95 24 -117 26 -325 25 -183 0 -236 -4 -298 -19z"/>
<path d="M5279 4337 c-45 -17 -88 -48 -114 -82 -11 -14 -28 -34 -37 -43 -33
-34 -106 -198 -146 -327 -59 -189 -90 -343 -126 -615 -48 -370 -56 -900 -18
-1210 52 -424 166 -734 322 -880 49 -46 115 -87 150 -95 19 -3 49 -11 66 -17
54 -19 159 14 231 72 60 49 146 148 176 205 25 46 57 79 66 69 5 -5 13 -30 20
-57 18 -75 57 -150 105 -204 61 -68 163 -107 264 -101 113 6 272 101 337 201
9 15 21 27 26 27 6 0 24 -30 41 -67 19 -41 51 -87 82 -118 44 -44 60 -53 113
-64 35 -8 77 -11 95 -7 101 19 133 27 147 39 9 7 28 19 44 27 15 7 58 40 95
71 37 32 74 58 82 59 9 0 24 -14 34 -31 25 -42 70 -82 131 -116 61 -33 148
-38 208 -10 20 9 54 25 75 34 35 17 212 184 212 201 0 14 56 72 63 65 4 -3 7
-32 7 -63 0 -67 25 -167 47 -192 28 -31 60 -22 93 24 32 43 153 285 209 418
61 141 72 165 81 180 5 8 19 31 29 50 25 45 68 90 86 90 46 0 70 -84 85 -300
11 -174 32 -312 55 -367 40 -96 129 -153 238 -153 108 0 213 51 166 81 -7 4
-41 5 -74 2 -73 -7 -107 8 -158 67 -54 64 -61 101 -101 546 -9 96 -20 165 -31
187 -45 95 -115 114 -185 51 -56 -51 -130 -170 -189 -304 -6 -14 -15 -32 -20
-40 -5 -8 -24 -46 -42 -85 -77 -169 -103 -215 -125 -215 -31 0 -37 40 -30 214
20 537 20 544 2 571 -22 33 -40 32 -91 -7 l-42 -32 -6 -281 c-6 -307 -11 -332
-68 -408 -56 -73 -144 -151 -209 -185 -87 -44 -174 -45 -259 -3 -58 30 -111
85 -111 117 0 10 19 56 41 103 50 102 68 172 69 269 0 104 -23 142 -85 142
-29 0 -84 -66 -109 -129 -23 -59 -35 -207 -25 -299 5 -42 6 -85 3 -97 -8 -30
-88 -88 -157 -114 -72 -26 -139 -27 -197 0 -295 133 -184 652 179 834 45 23
65 27 151 27 97 1 100 0 152 -35 29 -19 73 -56 98 -81 50 -52 75 -57 126 -25
50 30 45 59 -18 123 -46 45 -65 56 -138 79 -107 34 -213 37 -297 7 -32 -11
-64 -20 -73 -20 -8 0 -26 -9 -40 -20 -14 -11 -31 -20 -39 -20 -7 0 -43 -23
-80 -51 -197 -153 -311 -350 -336 -579 -7 -62 -9 -66 -70 -127 -86 -86 -188
-133 -288 -133 -61 0 -76 4 -117 30 -84 54 -118 128 -150 324 -25 152 -27 253
-7 292 73 142 183 517 232 789 15 83 29 160 31 172 5 29 25 31 359 38 297 7
381 16 420 47 27 21 35 73 13 80 -7 3 -175 2 -373 -2 -290 -5 -364 -4 -382 7
-22 13 -23 19 -23 158 0 295 -43 428 -133 411 -88 -16 -175 -193 -233 -471
-26 -128 -21 -125 -175 -125 -110 0 -131 2 -136 16 -3 9 2 71 11 138 10 66 21
162 25 211 13 141 13 549 1 660 -21 184 -77 317 -156 365 -45 28 -124 36 -175
17z m51 -92 c116 -60 181 -338 182 -779 0 -105 -3 -218 -6 -251 -17 -155 -30
-232 -42 -252 -14 -22 -19 -22 -112 -17 -53 3 -108 7 -122 10 -32 6 -127 41
-162 60 -35 19 -44 3 -21 -37 19 -32 138 -119 163 -119 8 0 29 -7 45 -16 17
-9 61 -20 98 -24 38 -4 74 -13 79 -18 13 -13 7 -41 -96 -412 -20 -70 -117
-334 -127 -344 -5 -6 -9 -16 -9 -23 0 -7 -9 -32 -19 -56 -11 -23 -34 -76 -51
-117 -38 -89 -34 -82 -52 -75 -16 7 -33 80 -63 284 -106 704 -10 1856 179
2134 20 30 72 67 94 67 7 0 26 -7 42 -15z m786 -855 c15 -31 34 -227 34 -342
l0 -86 -30 -12 c-17 -7 -33 -10 -36 -7 -3 3 -18 2 -32 -3 -15 -4 -38 -3 -51 1
-22 9 -23 12 -17 77 16 172 35 294 55 344 5 13 12 31 15 41 8 26 48 18 62 -13z
m9 -587 c12 -12 15 -25 10 -51 -4 -20 -10 -72 -15 -116 -10 -96 -36 -220 -90
-446 -51 -208 -46 -196 -66 -179 -15 12 -16 51 -10 399 7 337 9 387 24 398 24
18 127 16 147 -5z m-286 -6 c6 -8 9 -16 7 -18 -6 -6 -24 -177 -36 -349 -15
-211 -13 -600 4 -771 8 -80 12 -156 9 -170 -18 -70 -173 -233 -267 -279 -72
-37 -121 -38 -184 -6 -106 53 -170 146 -242 346 -33 93 -35 80 39 234 27 56
63 133 80 171 18 39 36 78 41 87 6 10 10 23 10 30 0 7 7 26 15 42 38 72 138
372 191 571 14 55 31 106 36 113 15 18 281 17 297 -1z m1587 -1082 c17 -69
-49 -296 -78 -267 -16 16 -4 212 15 255 21 45 53 51 63 12z"/>
<path d="M14532 4334 c-53 -20 -133 -97 -174 -169 -88 -151 -169 -420 -213
-700 -9 -55 -20 -127 -25 -160 -43 -276 -60 -891 -32 -1155 40 -374 115 -655
225 -835 78 -128 181 -212 293 -239 67 -16 76 -16 137 0 52 13 80 28 130 69
65 53 146 149 168 199 23 49 35 34 56 -67 26 -126 86 -203 179 -228 53 -15
107 -4 191 37 65 32 104 65 188 159 26 29 27 29 41 10 8 -10 14 -27 14 -38 0
-30 47 -101 87 -133 132 -105 320 -137 558 -95 102 18 213 69 308 140 64 48
167 164 192 218 24 49 41 29 49 -58 16 -170 51 -251 114 -264 15 -4 35 -8 45
-10 11 -2 46 5 80 16 138 44 288 210 397 439 17 36 44 90 59 120 l27 55 81 7
c70 6 90 12 135 41 29 18 75 56 101 83 55 56 121 159 112 174 -11 18 -35 11
-44 -13 -13 -35 -94 -115 -154 -154 -44 -28 -60 -33 -113 -33 -80 0 -91 12
-69 76 30 89 40 189 27 267 -11 61 -18 78 -49 109 -42 43 -77 49 -120 21 -68
-45 -98 -89 -119 -180 -13 -57 -14 -78 -4 -128 18 -86 55 -157 106 -204 29
-26 44 -48 44 -64 0 -31 -79 -188 -145 -287 -69 -106 -181 -217 -227 -225 -76
-14 -102 13 -122 131 -17 101 -15 59 -22 434 -3 179 -9 338 -13 354 -17 72
-131 117 -202 81 -57 -30 -68 -65 -19 -65 17 0 38 -8 48 -18 17 -17 19 -44 25
-276 5 -206 3 -266 -8 -304 -17 -57 -96 -148 -187 -217 -76 -57 -210 -125
-246 -125 -15 0 -45 -6 -67 -14 -80 -27 -186 -30 -282 -6 -147 36 -233 112
-248 220 -15 112 22 184 153 299 47 40 213 121 249 121 11 0 26 7 33 15 20 25
-4 42 -68 48 -148 13 -284 61 -342 120 -73 75 -39 177 77 234 56 26 64 28 198
27 126 -1 147 -4 208 -28 74 -28 92 -26 121 16 19 27 21 72 4 86 -16 12 -72
28 -165 47 -77 15 -132 10 -253 -20 -136 -34 -247 -115 -290 -213 -25 -56 -28
-153 -7 -204 21 -50 83 -105 158 -142 35 -17 64 -38 64 -45 0 -8 -17 -20 -38
-27 -21 -7 -50 -22 -65 -32 -15 -11 -36 -22 -47 -26 -28 -10 -86 -88 -135
-185 -47 -91 -116 -160 -210 -212 -72 -39 -123 -39 -178 1 -35 25 -44 40 -64
102 -20 65 -22 92 -21 253 1 159 16 320 39 409 5 21 -1 33 -29 61 -39 39 -75
45 -99 18 -32 -39 -68 -292 -68 -486 0 -113 -19 -155 -117 -252 -83 -83 -173
-135 -235 -135 -39 0 -99 25 -151 64 -31 22 -102 126 -131 190 -29 61 -68 179
-68 202 0 11 24 72 55 135 111 229 148 315 217 509 126 356 191 639 225 974
17 170 20 563 5 705 -19 176 -78 313 -156 361 -47 30 -124 35 -182 14z m58
-89 c85 -44 143 -209 171 -485 12 -128 15 -425 5 -540 -18 -200 -72 -485 -127
-678 -17 -59 -36 -127 -43 -152 -20 -70 -117 -334 -127 -344 -5 -6 -9 -16 -9
-23 0 -7 -11 -36 -23 -65 -13 -29 -37 -83 -53 -121 -46 -108 -61 -83 -98 153
-36 233 -56 505 -56 764 0 214 20 575 39 701 5 33 15 101 21 150 16 120 63
346 89 423 42 125 77 184 125 213 37 23 48 23 86 4z m2986 -2150 c32 -22 48
-93 40 -183 -7 -91 -18 -134 -33 -139 -7 -3 -28 11 -47 29 -36 33 -66 115 -66
179 0 59 40 129 74 129 6 0 21 -7 32 -15z"/>
<path d="M15156 2699 c-55 -37 -76 -79 -76 -152 0 -38 6 -58 25 -83 47 -62
153 -69 200 -12 73 86 51 226 -41 264 -46 19 -54 18 -108 -17z"/>
<path d="M4410 2085 c-19 -7 -40 -21 -47 -31 -6 -11 -24 -84 -39 -163 -14 -79
-32 -162 -40 -184 -8 -22 -14 -50 -14 -63 0 -13 -9 -43 -19 -67 -11 -23 -27
-58 -36 -77 -36 -80 -54 -108 -120 -195 -108 -142 -221 -174 -286 -83 -22 30
-24 42 -23 148 1 63 9 179 18 257 23 199 21 257 -8 320 -16 34 -35 57 -55 67
-64 34 -202 9 -170 -30 6 -8 22 -14 35 -14 32 0 61 -31 69 -73 4 -19 -2 -106
-14 -193 -43 -338 -45 -383 -27 -466 21 -96 62 -140 146 -157 138 -28 261 36
371 192 27 39 49 76 49 82 0 7 6 18 14 24 8 7 18 25 21 41 3 16 12 34 20 40 7
6 16 26 19 46 4 19 15 49 25 67 11 18 22 49 25 70 4 20 11 37 15 37 18 0 23
-39 26 -175 4 -171 31 -310 73 -370 55 -80 183 -110 272 -65 74 38 64 60 -30
63 -58 2 -64 5 -92 37 -61 74 -76 191 -76 588 1 345 1 343 -47 341 -11 -1 -36
-7 -55 -14z"/>
<path d="M10004 1714 c3 -9 6 -18 6 -20 0 -2 5 -4 10 -4 6 0 10 9 10 20 0 12
-7 20 -16 20 -11 0 -14 -5 -10 -16z"/>
</g>
</svg>
